# xmcd CD database file
#
# Track frame offsets:
#	150
#	31709
#	93969
#	108866
#	140244
#	156395
#	170483
#	183226
#	196734
#	220315
#	256518
#	279223
#	295299
#	317151
#
# Disc length: 4507 seconds
#
# Revision: 4
# Processed by: cddbd v1.5.2PL0 Copyright (c) Steve Scherf et al.
# Submitted via: CDex 1.70beta2
#
DISCID=c011990e
DTITLE=Eckhart Tolle - Jetzt! Die Kraft der Gegenwart - CD2
DYEAR=2003
DGENRE=Hörbuch
TTITLE0=Kapitel 2 Bewusstsein. Der Weg aus dem Schmerz heraus
TTITLE1=Alter Schmerz. Auflösung des Schmerzkörpers
TTITLE2=Ego-Identifikation mit dem Schmerzkörper
TTITLE3=Der Ursprung von Angst
TTITLE4=Die Suche des Ego nach Ganzheit
TTITLE5=Kapitel 3 Eine Bewegung tief in die Gegenwart hinein
TTITLE6=Beende die Illusion von Zeit
TTITLE7=Nichts existiert ausserhalb der Gegenwart
TTITLE8=Der Schlüssel zur spirituellen Dimension
TTITLE9=Zugang zur Kraft der Gegenwart
TTITLE10=Loslassen von psychologischer Zeit
TTITLE11=Der Wahnsinn psychologischer Zeit
TTITLE12=Negativität and Leiden haben ihre Wurzeln in der Zeit
TTITLE13=Finde das Leben, das tiefer ist, als deine Lebenssituation
EXTD=YEAR: 2003
EXTT0=
EXTT1=
EXTT2=
EXTT3=
EXTT4=
EXTT5=
EXTT6=
EXTT7=
EXTT8=
EXTT9=
EXTT10=
EXTT11=
EXTT12=
EXTT13=
PLAYORDER=
